<svg width="497" height="607" viewBox="0 0 497 607" fill="none" xmlns="http://www.w3.org/2000/svg">
<path opacity="0.6" d="M290.346 105.23C340.936 131.101 313.16 191.822 339.768 242.007C364.78 289.185 429.24 286.638 419.198 353.324C409.155 420.009 353.351 410.925 314.13 450.884C276.839 488.877 275.26 541.886 223.021 552.282C169.486 562.937 146.808 514.15 97.9739 489.717C49.1398 465.283 2.23094 473.211 -27.0736 427.151C-57.8368 378.799 -35.6327 337.012 -26.4516 280.479C-17.9404 228.072 -27.9165 182.754 14.5354 150.857C56.6903 119.184 149.57 146.845 149.57 146.845C149.57 146.845 239.282 79.1159 290.346 105.23Z" fill="#F3E4B4"/>
</svg>
