<svg width="961" height="1024" viewBox="0 0 961 1024" fill="none" xmlns="http://www.w3.org/2000/svg">
<path d="M534.247 329.356C638.059 434.691 505.188 576.846 522.747 729.88C539.253 873.742 707.487 913.174 614.149 1083.97C520.811 1254.76 386.599 1190.49 245.341 1269.02C111.033 1343.68 53.2974 1484.04 -91.4794 1474.32C-239.85 1464.37 -248.725 1317.88 -349.482 1217.65C-450.238 1117.41 -578.816 1104.92 -607.484 960.969C-637.578 809.846 -538.2 714.235 -457.357 569.925C-382.414 436.146 -362.161 308.033 -220.763 253.34C-80.355 199.03 130.324 339.472 130.324 339.472C130.324 339.472 429.461 223.033 534.247 329.356Z" fill="#EFD37F"/>
</svg>
