<svg width="530" height="355" viewBox="0 0 530 355" fill="none" xmlns="http://www.w3.org/2000/svg">
<path opacity="0.6" d="M268.054 133.175C332.079 165.917 296.927 242.764 330.601 306.276C362.256 365.982 443.834 362.76 431.125 447.155C418.415 531.55 347.791 520.053 298.154 570.623C250.96 618.706 248.963 685.792 182.851 698.95C115.097 712.434 86.3975 650.691 24.5947 619.769C-37.208 588.847 -96.5743 598.879 -133.661 540.588C-172.594 479.395 -144.493 426.511 -132.874 354.965C-122.102 288.64 -134.728 231.288 -81.0021 190.92C-27.6523 150.835 89.8925 185.842 89.8925 185.842C89.8925 185.842 203.429 100.126 268.054 133.175Z" fill="#F3E4B4"/>
</svg>
