<svg width="71" height="71" viewBox="0 0 71 71" fill="none" xmlns="http://www.w3.org/2000/svg">
<g clip-path="url(#clip0)">
<path d="M12.6915 7.80225H12.6747C10.1067 7.83983 8.01801 9.96067 8.01801 12.53V19.2861H1.04503C0.467879 19.2861 0 19.754 0 20.3311C0 20.9083 0.467879 21.3761 1.04503 21.3761H8.01815V26.8706H1.04503C0.467879 26.8706 0 27.3385 0 27.9156C0 28.4928 0.467879 28.9607 1.04503 28.9607H8.01815V34.455H1.04503C0.467879 34.4551 0 34.923 0 35.5002C0 36.0773 0.467879 36.5452 1.04503 36.5452H8.01815V42.0395H1.04503C0.467879 42.0395 0 42.5074 0 43.0845C0 43.6617 0.467879 44.1296 1.04503 44.1296H8.01815V49.624H1.04503C0.467879 49.624 0 50.0919 0 50.6691C0 51.2462 0.467879 51.7141 1.04503 51.7141H8.01815V55.2877C8.01815 55.8645 8.4863 56.3327 9.06318 56.3327C9.64005 56.3327 10.1082 55.8645 10.1082 55.2877V12.5301C10.1082 11.0963 11.2731 9.91339 12.7069 9.89106C13.2838 9.88274 13.745 9.4089 13.7353 8.83064C13.7269 8.25931 13.2615 7.80225 12.6915 7.80225Z" fill="black"/>
<path d="M56.8788 60.6759H12.7473C11.6702 60.6759 10.7116 60.0322 10.3033 59.0358C10.0845 58.5008 9.47558 58.2458 8.94059 58.4645C8.40545 58.6833 8.15057 59.2936 8.36926 59.8272C9.09937 61.6122 10.8175 62.7658 12.7473 62.7658H19.2861V69.9549C19.2861 70.532 19.7539 70.9999 20.3311 70.9999C20.9082 70.9999 21.3761 70.532 21.3761 69.9549V62.7658H26.8706V69.9549C26.8706 70.532 27.3385 70.9999 27.9156 70.9999C28.4928 70.9999 28.9606 70.532 28.9606 69.9549V62.7658H34.455V69.9549C34.455 70.532 34.9228 70.9999 35.5 70.9999C36.0771 70.9999 36.545 70.532 36.545 69.9549V62.7658H42.0393V69.9549C42.0393 70.532 42.5072 70.9999 43.0844 70.9999C43.6615 70.9999 44.1294 70.532 44.1294 69.9549V62.7658H49.6239V69.9549C49.6239 70.532 50.0917 70.9999 50.6689 70.9999C51.246 70.9999 51.7139 70.532 51.7139 69.9549V62.7658H56.8788C57.4556 62.7658 57.9238 62.2977 57.9238 61.7208C57.9238 61.1428 57.4556 60.6759 56.8788 60.6759Z" fill="black"/>
<path d="M49.6735 17.7693H21.3265C19.4844 17.7693 17.9866 19.2672 17.9866 21.1092V49.4578C17.9866 51.2999 19.4845 52.7977 21.3265 52.7977H49.6737C51.5158 52.7977 53.0136 51.2997 53.0136 49.4578V21.1092C53.0136 19.2671 51.5156 17.7693 49.6735 17.7693ZM20.0765 21.1092C20.0765 20.4194 20.6366 19.8594 21.3263 19.8594H42.9432V30.7738C41.0539 31.182 39.5616 32.6744 39.1535 34.5638H31.4522V29.2049C33.4266 28.8189 34.9204 27.0757 34.9204 24.9898C34.9204 22.6224 32.9932 20.6954 30.6246 20.6954C28.5387 20.6954 26.7957 22.189 26.4095 24.1621H20.0765V21.1092ZM43.9885 32.7524C45.563 32.7524 46.8436 34.0342 46.8436 35.6089C46.8436 37.1835 45.5631 38.464 43.9885 38.464C42.4027 38.464 41.132 37.1709 41.132 35.6089C41.1322 34.044 42.4063 32.7524 43.9885 32.7524ZM30.6246 27.1955C29.416 27.1955 28.4189 26.2126 28.4189 24.9898C28.4189 23.7747 29.4081 22.7855 30.6246 22.7855C31.841 22.7855 32.8303 23.7747 32.8303 24.9898C32.8303 26.2168 31.8313 27.1955 30.6246 27.1955ZM26.1114 44.2757C25.5052 43.9357 25.0956 43.285 25.0956 42.5423C25.0956 41.4457 25.9888 40.5539 27.0854 40.5539C28.182 40.5539 29.0738 41.4457 29.0738 42.5423C29.0737 44.0619 27.4301 45.0212 26.1114 44.2757ZM34.5634 50.7076H27.5522V46.5943C29.5823 46.363 31.1639 44.6338 31.1639 42.5423C31.1639 40.2933 29.3344 38.4638 27.0854 38.4638C24.835 38.4638 23.0055 40.2933 23.0055 42.5423C23.0055 44.2144 24.0171 45.6566 25.4621 46.2849V50.7076H21.3265C20.6367 50.7076 20.0766 50.1461 20.0766 49.4578V26.2521H26.5182C26.5271 26.2665 27.0887 28.3975 29.3621 29.0961V35.6089C29.3621 36.1857 29.8303 36.6539 30.4071 36.6539H34.5634V50.7076ZM50.9235 49.4578C50.9235 50.1461 50.3634 50.7076 49.6737 50.7076H36.6535V46.1883H50.9235V49.4578ZM50.9235 44.0982H36.6535V36.6539H39.1535C39.6342 38.8806 41.6197 40.554 43.9885 40.554C46.7154 40.554 48.9337 38.3357 48.9337 35.6089C48.9337 33.2401 47.2602 31.2546 45.0336 30.7738C45.0336 30.7738 45.0334 30.7738 45.0333 30.7738V19.8594H49.6735C50.3633 19.8594 50.9234 20.4194 50.9234 21.1092V44.0982H50.9235Z" fill="black"/>
<path d="M69.955 28.9607C70.5321 28.9607 71 28.4928 71 27.9156C71 27.3385 70.5321 26.8706 69.955 26.8706H62.9819V21.3761H69.955C70.5321 21.3761 71 20.9083 71 20.3311C71 19.7539 70.5321 19.2861 69.955 19.2861H62.9819V12.53C62.9819 9.92294 60.8612 7.80085 58.2527 7.80085H51.7139V1.04503C51.7139 0.467879 51.2461 0 50.6689 0C50.0918 0 49.6239 0.467879 49.6239 1.04503V7.80071H44.1294V1.04503C44.1294 0.467879 43.6615 0 43.0844 0C42.5072 0 42.0394 0.467879 42.0394 1.04503V7.80071H36.545V1.04503C36.545 0.467879 36.0772 0 35.5 0C34.9229 0 34.455 0.467879 34.455 1.04503V7.80071H28.9607V1.04503C28.9607 0.467879 28.4928 0 27.9156 0C27.3385 0 26.8706 0.467879 26.8706 1.04503V7.80071H21.3761V1.04503C21.3761 0.467879 20.9083 0 20.3311 0C19.754 0 19.2861 0.467879 19.2861 1.04503V7.80071H16.8718C16.2935 7.80071 15.8268 8.26887 15.8268 8.84574C15.8268 9.42262 16.2935 9.89077 16.8718 9.89077C22.3462 9.89077 53.8715 9.89077 58.2527 9.89077C59.7088 9.89077 60.8918 11.0752 60.8918 12.5298V58.0367C60.8918 58.7654 60.602 59.4441 60.0739 59.947C59.656 60.3456 59.6392 61.0074 60.0377 61.424C60.2439 61.6399 60.5185 61.7486 60.7943 61.7486C61.0535 61.7486 61.3127 61.6525 61.5161 61.4602C62.4609 60.5587 62.982 59.3423 62.982 58.0367V51.7139H69.9551C70.5323 51.7139 71.0002 51.2461 71.0002 50.6689C71.0002 50.0917 70.5323 49.6239 69.9551 49.6239H62.982V44.1294H69.9551C70.5323 44.1294 71.0002 43.6615 71.0002 43.0844C71.0002 42.5072 70.5323 42.0394 69.9551 42.0394H62.982V36.545H69.9551C70.5323 36.545 71.0002 36.0772 71.0002 35.5C71.0002 34.9228 70.5323 34.455 69.9551 34.455H62.982V28.9607H69.955Z" fill="black"/>
</g>
<defs>
<clipPath id="clip0">
<rect width="71" height="71" fill="white"/>
</clipPath>
</defs>
</svg>
