<svg width="71" height="71" viewBox="0 0 71 71" fill="none" xmlns="http://www.w3.org/2000/svg">
<g clip-path="url(#clip0)">
<path d="M8.2837 13.0162H1.1837C0.530281 13.0162 0 12.4859 0 11.8336C0 11.1802 0.530281 10.6499 1.1837 10.6499H8.2837C8.93713 10.6499 9.46741 11.1802 9.46741 11.8336C9.4663 12.4859 8.93602 13.0162 8.2837 13.0162Z" fill="black"/>
<path d="M8.28368 60.3499C7.63026 60.3499 7.09998 59.8196 7.09998 59.1662V11.8336C7.09998 11.1802 7.63026 10.6499 8.28368 10.6499C8.9371 10.6499 9.46738 11.1802 9.46738 11.8336V59.1673C9.46627 59.8196 8.93599 60.3499 8.28368 60.3499Z" fill="black"/>
<path d="M8.28368 35.5H3.54997C2.89655 35.5 2.36627 34.9697 2.36627 34.3163V24.85C2.36627 24.1965 2.89655 23.6663 3.54997 23.6663H8.28368C8.9371 23.6663 9.46738 24.1965 9.46738 24.85V34.3163C9.46627 34.9697 8.93599 35.5 8.28368 35.5ZM4.73368 33.1337H7.09997V26.0337H4.73368V33.1337Z" fill="black"/>
<path d="M8.28368 54.4338H3.54997C2.89655 54.4338 2.36627 53.9035 2.36627 53.2501V43.7838C2.36627 43.1304 2.89655 42.6001 3.54997 42.6001H8.28368C8.9371 42.6001 9.46738 43.1304 9.46738 43.7838V53.2501C9.46627 53.9035 8.93599 54.4338 8.28368 54.4338ZM4.73368 52.0664H7.09997V44.9664H4.73368V52.0664Z" fill="black"/>
<path d="M42.6 60.3498H16.5663C15.9129 60.3498 15.3826 59.8196 15.3826 59.1661V50.8824C15.3826 50.229 15.9129 49.6987 16.5663 49.6987H42.6C43.2535 49.6987 43.7837 50.229 43.7837 50.8824V59.1661C43.7837 59.8196 43.2535 60.3498 42.6 60.3498ZM17.75 57.9835H41.4163V52.0672H17.75V57.9835Z" fill="black"/>
<path d="M22.4837 60.35C21.8303 60.35 21.3 59.8197 21.3 59.1663V55.6163C21.3 54.9629 21.8303 54.4326 22.4837 54.4326C23.1371 54.4326 23.6674 54.9629 23.6674 55.6163V59.1663C23.6663 59.8197 23.136 60.35 22.4837 60.35Z" fill="black"/>
<path d="M36.6837 60.35C36.0303 60.35 35.5 59.8197 35.5 59.1663V55.6163C35.5 54.9629 36.0303 54.4326 36.6837 54.4326C37.3371 54.4326 37.8674 54.9629 37.8674 55.6163V59.1663C37.8663 59.8197 37.336 60.35 36.6837 60.35Z" fill="black"/>
<path d="M54.4337 60.35C53.7803 60.35 53.25 59.8197 53.25 59.1663V55.6163C53.25 54.9629 53.7803 54.4326 54.4337 54.4326C55.0871 54.4326 55.6174 54.9629 55.6174 55.6163V59.1663C55.6163 59.8197 55.086 60.35 54.4337 60.35Z" fill="black"/>
<path d="M31.95 60.35C31.2966 60.35 30.7663 59.8197 30.7663 59.1663V55.6163C30.7663 54.9629 31.2966 54.4326 31.95 54.4326C32.6034 54.4326 33.1337 54.9629 33.1337 55.6163V59.1663C33.1337 59.8197 32.6034 60.35 31.95 60.35Z" fill="black"/>
<path d="M27.2163 60.35C26.5628 60.35 26.0326 59.8197 26.0326 59.1663V55.6163C26.0326 54.9629 26.5628 54.4326 27.2163 54.4326C27.8697 54.4326 28.4 54.9629 28.4 55.6163V59.1663C28.4 59.8197 27.8697 60.35 27.2163 60.35Z" fill="black"/>
<path d="M59.1663 60.3498H49.7C49.0466 60.3498 48.5163 59.8196 48.5163 59.1661V50.8824C48.5163 50.229 49.0466 49.6987 49.7 49.6987H59.1663C59.8197 49.6987 60.35 50.229 60.35 50.8824V59.1661C60.35 59.8196 59.8197 60.3498 59.1663 60.3498ZM50.8837 57.9835H57.9837V52.0672H50.8837V57.9835Z" fill="black"/>
<path d="M8.28368 21.3H3.54997C2.89655 21.3 2.36627 20.7697 2.36627 20.1163C2.36627 19.4629 2.89655 18.9326 3.54997 18.9326H8.28368C8.9371 18.9326 9.46738 19.4629 9.46738 20.1163C9.46738 20.7697 8.93599 21.3 8.28368 21.3Z" fill="black"/>
<path d="M8.28368 40.2336H3.54997C2.89655 40.2336 2.36627 39.7033 2.36627 39.0499C2.36627 38.3965 2.89655 37.8662 3.54997 37.8662H8.28368C8.9371 37.8662 9.46738 38.3965 9.46738 39.0499C9.46627 39.7033 8.93599 40.2336 8.28368 40.2336Z" fill="black"/>
<path d="M24.85 47.3335C17.6735 47.3335 11.8337 41.4938 11.8337 34.3172C11.8337 27.1407 17.6735 21.2998 24.85 21.2998C32.0266 21.2998 37.8663 27.1396 37.8663 34.3161C37.8663 41.4926 32.0266 47.3335 24.85 47.3335ZM24.85 23.6661C18.977 23.6661 14.2 28.4442 14.2 34.3161C14.2 40.188 18.977 44.9661 24.85 44.9661C30.723 44.9661 35.5 40.188 35.5 34.3161C35.5 28.4442 30.723 23.6661 24.85 23.6661Z" fill="black"/>
<path d="M24.85 39.0499C22.2397 39.0499 20.1163 36.9266 20.1163 34.3162C20.1163 31.7059 22.2397 29.5825 24.85 29.5825C27.4604 29.5825 29.5837 31.7059 29.5837 34.3162C29.5837 36.9266 27.4604 39.0499 24.85 39.0499ZM24.85 31.9499C23.5443 31.9499 22.4837 33.0116 22.4837 34.3162C22.4837 35.622 23.5454 36.6825 24.85 36.6825C26.1558 36.6825 27.2163 35.6208 27.2163 34.3162C27.2163 33.0116 26.1558 31.9499 24.85 31.9499Z" fill="black"/>
<path d="M63.9011 52.0662H8.28368C7.63026 52.0662 7.09998 51.5359 7.09998 50.8825V17.7499C7.09998 17.0964 7.63026 16.5662 8.28368 16.5662H63.9011C67.8161 16.5662 71 19.7501 71 23.6651V44.9684C71 48.8823 67.8161 52.0662 63.9011 52.0662ZM9.46627 49.6999H63.9011C66.5103 49.6999 68.6337 47.5765 68.6337 44.9673V23.6651C68.6337 21.0558 66.5103 18.9325 63.9011 18.9325H9.46627V49.6999Z" fill="black"/>
<path d="M24.85 31.9501C24.1966 31.9501 23.6663 31.4198 23.6663 30.7664C23.6663 28.217 20.4136 26.0327 17.75 26.0327C17.0966 26.0327 16.5663 25.5024 16.5663 24.849C16.5663 24.1956 17.0966 23.6653 17.75 23.6653C21.5807 23.6653 26.0337 26.7671 26.0337 30.7653C26.0337 31.4198 25.5034 31.9501 24.85 31.9501Z" fill="black"/>
<path d="M31.95 44.9663C28.1193 44.9663 23.6663 41.8645 23.6663 37.8663C23.6663 37.2129 24.1966 36.6826 24.85 36.6826C25.5034 36.6826 26.0337 37.2129 26.0337 37.8663C26.0337 40.4157 29.2864 42.6 31.95 42.6C32.6034 42.6 33.1337 43.1303 33.1337 43.7837C33.1337 44.436 32.6034 44.9663 31.95 44.9663Z" fill="black"/>
<path d="M15.3837 42.6C14.7303 42.6 14.2 42.0697 14.2 41.4163C14.2 37.5856 17.3018 33.1326 21.3 33.1326C21.9534 33.1326 22.4837 33.6629 22.4837 34.3163C22.4837 34.9697 21.9534 35.5 21.3 35.5C18.7506 35.5 16.5663 38.7538 16.5663 41.4163C16.5663 42.0697 16.036 42.6 15.3837 42.6Z" fill="black"/>
<path d="M28.4 35.4999C27.7466 35.4999 27.2163 34.9696 27.2163 34.3162C27.2163 33.6628 27.7466 33.1325 28.4 33.1325C30.9493 33.1325 33.1337 29.8787 33.1337 27.2162C33.1337 26.5628 33.664 26.0325 34.3174 26.0325C34.9708 26.0325 35.5011 26.5628 35.5011 27.2162C35.5 31.0468 32.3982 35.4999 28.4 35.4999Z" fill="black"/>
<path d="M13.1361 33.8269C12.8333 33.8269 12.5304 33.7104 12.2997 33.4796C11.837 33.0181 11.837 32.2693 12.2997 31.8067C13.6165 30.4899 15.5967 29.558 17.5958 29.3161C19.8534 29.0377 21.837 29.629 23.1771 30.9702C23.6386 31.4328 23.6386 32.1816 23.1771 32.6431C22.7145 33.1058 21.9656 33.1058 21.5041 32.6431C20.701 31.84 19.3819 31.4839 17.882 31.6647C16.3899 31.8455 14.93 32.5244 13.9748 33.4796C13.7418 33.7104 13.4379 33.8269 13.1361 33.8269Z" fill="black"/>
<path d="M31.0392 39.3839C29.2265 39.3839 27.649 38.7904 26.524 37.6633C26.0625 37.2006 26.0625 36.4518 26.524 35.9903C26.9867 35.5277 27.7355 35.5277 28.197 35.9903C29.0002 36.7935 30.3203 37.1518 31.8191 36.9688C33.3112 36.788 34.7711 36.109 35.7263 35.1538C36.1889 34.6912 36.9378 34.6912 37.3993 35.1538C37.8619 35.6153 37.8619 36.3642 37.3993 36.8268C36.0824 38.1436 34.1022 39.0755 32.1031 39.3173C31.7414 39.3628 31.3853 39.3839 31.0392 39.3839Z" fill="black"/>
<path d="M23.177 47.2139C22.8742 47.2139 22.5713 47.0974 22.3406 46.8667C19.6315 44.1576 18.6774 38.816 21.5041 35.9893C21.9667 35.5267 22.7155 35.5267 23.177 35.9893C23.6397 36.4508 23.6397 37.1996 23.177 37.6622C21.3743 39.465 22.1298 43.31 24.0135 45.1927C24.4761 45.6553 24.4761 46.403 24.0135 46.8656C23.7828 47.0986 23.4799 47.2139 23.177 47.2139Z" fill="black"/>
<path d="M27.3594 32.9904C27.0566 32.9904 26.7537 32.8739 26.523 32.6432C26.0604 32.1817 26.0604 31.4329 26.523 30.9703C28.3257 29.1675 27.5702 25.3224 25.6865 23.4398C25.2239 22.9772 25.2239 22.2295 25.6865 21.7669C26.148 21.3043 26.8979 21.3043 27.3594 21.7669C30.0685 24.476 31.0226 29.8176 28.1959 32.6443C27.9663 32.8739 27.6623 32.9904 27.3594 32.9904Z" fill="black"/>
<path d="M53.25 47.3335C46.0735 47.3335 40.2337 41.4938 40.2337 34.3172C40.2337 27.1407 46.0735 21.2998 53.25 21.2998C60.4265 21.2998 66.2663 27.1396 66.2663 34.3161C66.2663 41.4926 60.4265 47.3335 53.25 47.3335ZM53.25 23.6661C47.377 23.6661 42.6 28.4442 42.6 34.3161C42.6 40.188 47.377 44.9661 53.25 44.9661C59.123 44.9661 63.9 40.188 63.9 34.3161C63.9 28.4442 59.123 23.6661 53.25 23.6661Z" fill="black"/>
<path d="M53.25 39.0499C50.6396 39.0499 48.5163 36.9266 48.5163 34.3162C48.5163 31.7059 50.6396 29.5825 53.25 29.5825C55.8604 29.5825 57.9837 31.7059 57.9837 34.3162C57.9837 36.9266 55.8604 39.0499 53.25 39.0499ZM53.25 31.9499C51.9443 31.9499 50.8837 33.0116 50.8837 34.3162C50.8837 35.622 51.9454 36.6825 53.25 36.6825C54.5546 36.6825 55.6163 35.6208 55.6163 34.3162C55.6163 33.0116 54.5557 31.9499 53.25 31.9499Z" fill="black"/>
<path d="M53.25 31.9501C52.5966 31.9501 52.0663 31.4198 52.0663 30.7664C52.0663 28.217 48.8136 26.0327 46.15 26.0327C45.4966 26.0327 44.9663 25.5024 44.9663 24.849C44.9663 24.1956 45.4966 23.6653 46.15 23.6653C49.9807 23.6653 54.4337 26.7671 54.4337 30.7653C54.4337 31.4198 53.9034 31.9501 53.25 31.9501Z" fill="black"/>
<path d="M60.35 44.9663C56.5193 44.9663 52.0663 41.8645 52.0663 37.8663C52.0663 37.2129 52.5966 36.6826 53.25 36.6826C53.9034 36.6826 54.4337 37.2129 54.4337 37.8663C54.4337 40.4157 57.6864 42.6 60.35 42.6C61.0034 42.6 61.5337 43.1303 61.5337 43.7837C61.5337 44.436 61.0034 44.9663 60.35 44.9663Z" fill="black"/>
<path d="M43.7837 42.6C43.1303 42.6 42.6 42.0697 42.6 41.4163C42.6 37.5856 45.7018 33.1326 49.7 33.1326C50.3534 33.1326 50.8837 33.6629 50.8837 34.3163C50.8837 34.9697 50.3534 35.5 49.7 35.5C47.1507 35.5 44.9663 38.7538 44.9663 41.4163C44.9663 42.0697 44.436 42.6 43.7837 42.6Z" fill="black"/>
<path d="M56.8 35.4999C56.1466 35.4999 55.6163 34.9696 55.6163 34.3162C55.6163 33.6628 56.1466 33.1325 56.8 33.1325C59.3494 33.1325 61.5337 29.8787 61.5337 27.2162C61.5337 26.5628 62.064 26.0325 62.7174 26.0325C63.3709 26.0325 63.9011 26.5628 63.9011 27.2162C63.9 31.0468 60.7982 35.4999 56.8 35.4999Z" fill="black"/>
<path d="M41.5361 33.8269C41.2332 33.8269 40.9304 33.7104 40.6996 33.4796C40.237 33.0181 40.237 32.2693 40.6996 31.8067C42.0164 30.4899 43.9967 29.558 45.9958 29.3161C48.2534 29.0377 50.2369 29.629 51.5771 30.9702C52.0386 31.4328 52.0386 32.1816 51.5771 32.6431C51.1144 33.1058 50.3656 33.1058 49.9041 32.6431C49.1009 31.84 47.7808 31.4839 46.282 31.6647C44.7899 31.8455 43.3299 32.5244 42.3748 33.4796C42.1418 33.7104 41.8378 33.8269 41.5361 33.8269Z" fill="black"/>
<path d="M59.4392 39.3839C57.6265 39.3839 56.0489 38.7904 54.924 37.6633C54.4625 37.2006 54.4625 36.4518 54.924 35.9903C55.3866 35.5277 56.1355 35.5277 56.597 35.9903C57.4002 36.7935 58.7192 37.1518 60.2191 36.9688C61.7112 36.788 63.1711 36.109 64.1263 35.1538C64.5889 34.6912 65.3378 34.6912 65.7993 35.1538C66.2619 35.6153 66.2619 36.3642 65.7993 36.8268C64.4824 38.1436 62.5022 39.0755 60.5031 39.3173C60.1414 39.3628 59.7853 39.3839 59.4392 39.3839Z" fill="black"/>
<path d="M51.5771 47.2139C51.2742 47.2139 50.9713 47.0974 50.7406 46.8667C48.0315 44.1576 47.0774 38.816 49.9041 35.9893C50.3667 35.5267 51.1156 35.5267 51.5771 35.9893C52.0397 36.4508 52.0397 37.1996 51.5771 37.6622C49.7743 39.465 50.5298 43.31 52.4135 45.1927C52.8761 45.6553 52.8761 46.403 52.4135 46.8656C52.1828 47.0986 51.8799 47.2139 51.5771 47.2139Z" fill="black"/>
<path d="M55.7594 32.9904C55.4565 32.9904 55.1537 32.8739 54.9229 32.6432C54.4603 32.1817 54.4603 31.4329 54.9229 30.9703C56.7257 29.1675 55.9702 25.3224 54.0865 23.4398C53.6238 22.9772 53.6238 22.2295 54.0865 21.7669C54.548 21.3043 55.2979 21.3043 55.7594 21.7669C58.4685 24.476 59.4225 29.8176 56.5959 32.6443C56.3662 32.8739 56.0623 32.9904 55.7594 32.9904Z" fill="black"/>
</g>
<defs>
<clipPath id="clip0">
<rect width="71" height="71" fill="white"/>
</clipPath>
</defs>
</svg>
