<svg width="71" height="71" viewBox="0 0 71 71" fill="none" xmlns="http://www.w3.org/2000/svg">
<path d="M57.6875 2.21875H13.3125C12.4298 2.21875 11.5833 2.56939 10.9592 3.19354C10.335 3.81768 9.98438 4.6642 9.98438 5.54688V65.4531C9.98438 66.3358 10.335 67.1823 10.9592 67.8065C11.5833 68.4306 12.4298 68.7812 13.3125 68.7812H57.6875C58.5702 68.7812 59.4167 68.4306 60.0408 67.8065C60.665 67.1823 61.0156 66.3358 61.0156 65.4531V5.54688C61.0156 4.6642 60.665 3.81768 60.0408 3.19354C59.4167 2.56939 58.5702 2.21875 57.6875 2.21875ZM58.7969 65.4531C58.7969 65.7473 58.68 66.0295 58.4719 66.2376C58.2639 66.4456 57.9817 66.5625 57.6875 66.5625H13.3125C13.0183 66.5625 12.7361 66.4456 12.5281 66.2376C12.32 66.0295 12.2031 65.7473 12.2031 65.4531V5.54688C12.2031 5.25265 12.32 4.97048 12.5281 4.76243C12.7361 4.55438 13.0183 4.4375 13.3125 4.4375H57.6875C57.9817 4.4375 58.2639 4.55438 58.4719 4.76243C58.68 4.97048 58.7969 5.25265 58.7969 5.54688V65.4531Z" fill="black"/>
<path d="M16.6406 12.2031C17.2989 12.2031 17.9423 12.0079 18.4896 11.6422C19.0369 11.2765 19.4635 10.7568 19.7154 10.1486C19.9673 9.54048 20.0332 8.87131 19.9048 8.22572C19.7764 7.58012 19.4594 6.98711 18.994 6.52166C18.5285 6.05621 17.9355 5.73924 17.2899 5.61083C16.6443 5.48241 15.9751 5.54832 15.367 5.80021C14.7589 6.05211 14.2391 6.47869 13.8734 7.02599C13.5077 7.5733 13.3125 8.21676 13.3125 8.875C13.3125 9.75768 13.6631 10.6042 14.2873 11.2283C14.9114 11.8525 15.758 12.2031 16.6406 12.2031ZM16.6406 7.76563C16.86 7.76563 17.0745 7.83069 17.257 7.95259C17.4394 8.07449 17.5816 8.24775 17.6656 8.45046C17.7495 8.65317 17.7715 8.87623 17.7287 9.09143C17.6859 9.30663 17.5802 9.5043 17.4251 9.65945C17.2699 9.8146 17.0722 9.92025 16.8571 9.96306C16.6419 10.0059 16.4188 9.9839 16.2161 9.89993C16.0134 9.81596 15.8401 9.67377 15.7182 9.49134C15.5963 9.3089 15.5312 9.09441 15.5312 8.875C15.5312 8.58078 15.6481 8.2986 15.8562 8.09055C16.0642 7.88251 16.3464 7.76563 16.6406 7.76563Z" fill="black"/>
<path d="M54.3594 5.54688C53.7011 5.54688 53.0577 5.74207 52.5104 6.10777C51.9631 6.47346 51.5365 6.99325 51.2846 7.60138C51.0327 8.20952 50.9668 8.87869 51.0952 9.52428C51.2236 10.1699 51.5406 10.7629 52.006 11.2283C52.4715 11.6938 53.0645 12.0108 53.7101 12.1392C54.3557 12.2676 55.0249 12.2017 55.633 11.9498C56.2411 11.6979 56.7609 11.2713 57.1266 10.724C57.4923 10.1767 57.6875 9.53324 57.6875 8.875C57.6875 7.99233 57.3369 7.1458 56.7127 6.52166C56.0886 5.89752 55.2421 5.54688 54.3594 5.54688ZM54.3594 9.98437C54.14 9.98437 53.9255 9.91931 53.743 9.79741C53.5606 9.67551 53.4184 9.50225 53.3345 9.29954C53.2505 9.09683 53.2285 8.87377 53.2713 8.65857C53.3141 8.44337 53.4198 8.2457 53.5749 8.09055C53.7301 7.9354 53.9278 7.82975 54.143 7.78694C54.3581 7.74413 54.5812 7.7661 54.7839 7.85007C54.9866 7.93404 55.1599 8.07623 55.2818 8.25866C55.4037 8.4411 55.4688 8.65558 55.4688 8.875C55.4688 9.16922 55.3519 9.4514 55.1438 9.65944C54.9358 9.86749 54.6536 9.98437 54.3594 9.98437Z" fill="black"/>
<path d="M16.6406 58.7969C15.9824 58.7969 15.3389 58.9921 14.7916 59.3578C14.2443 59.7235 13.8177 60.2432 13.5658 60.8514C13.3139 61.4595 13.248 62.1287 13.3764 62.7743C13.5049 63.4199 13.8218 64.0129 14.2873 64.4783C14.7527 64.9438 15.3457 65.2608 15.9913 65.3892C16.6369 65.5176 17.3061 65.4517 17.9142 65.1998C18.5224 64.9479 19.0421 64.5213 19.4078 63.974C19.7735 63.4267 19.9687 62.7832 19.9687 62.125C19.9687 61.2423 19.6181 60.3958 18.9939 59.7717C18.3698 59.1475 17.5233 58.7969 16.6406 58.7969ZM16.6406 63.2344C16.4212 63.2344 16.2067 63.1693 16.0243 63.0474C15.8418 62.9255 15.6996 62.7523 15.6157 62.5495C15.5317 62.3468 15.5097 62.1238 15.5526 61.9086C15.5954 61.6934 15.701 61.4957 15.8562 61.3406C16.0113 61.1854 16.209 61.0797 16.4242 61.0369C16.6394 60.9941 16.8624 61.0161 17.0651 61.1001C17.2679 61.184 17.4411 61.3262 17.563 61.5087C17.6849 61.6911 17.75 61.9056 17.75 62.125C17.75 62.4192 17.6331 62.7014 17.4251 62.9095C17.217 63.1175 16.9348 63.2344 16.6406 63.2344Z" fill="black"/>
<path d="M54.3594 58.7969C53.7011 58.7969 53.0577 58.9921 52.5104 59.3578C51.9631 59.7235 51.5365 60.2432 51.2846 60.8514C51.0327 61.4595 50.9668 62.1287 51.0952 62.7743C51.2236 63.4199 51.5406 64.0129 52.006 64.4783C52.4715 64.9438 53.0645 65.2608 53.7101 65.3892C54.3557 65.5176 55.0249 65.4517 55.633 65.1998C56.2411 64.9479 56.7609 64.5213 57.1266 63.974C57.4923 63.4267 57.6875 62.7832 57.6875 62.125C57.6875 61.2423 57.3369 60.3958 56.7127 59.7717C56.0886 59.1475 55.2421 58.7969 54.3594 58.7969ZM54.3594 63.2344C54.14 63.2344 53.9255 63.1693 53.743 63.0474C53.5606 62.9255 53.4184 62.7523 53.3345 62.5495C53.2505 62.3468 53.2285 62.1238 53.2713 61.9086C53.3141 61.6934 53.4198 61.4957 53.5749 61.3406C53.7301 61.1854 53.9278 61.0797 54.143 61.0369C54.3581 60.9941 54.5812 61.0161 54.7839 61.1001C54.9866 61.184 55.1599 61.3262 55.2818 61.5087C55.4037 61.6911 55.4688 61.9056 55.4688 62.125C55.4688 62.4192 55.3519 62.7014 55.1438 62.9095C54.9358 63.1175 54.6536 63.2344 54.3594 63.2344Z" fill="black"/>
<path d="M35.5 13.3125C35.2058 13.3125 34.9236 13.4294 34.7156 13.6374C34.5075 13.8455 34.3906 14.1277 34.3906 14.4219C34.3906 14.7161 34.5075 14.9983 34.7156 15.2063C34.9236 15.4144 35.2058 15.5312 35.5 15.5312C38.7353 15.5351 41.837 16.822 44.1247 19.1097C46.4124 21.3974 47.6993 24.4991 47.7031 27.7344C47.7031 28.0286 47.82 28.3108 48.0281 28.5188C48.2361 28.7269 48.5183 28.8438 48.8125 28.8438C49.1067 28.8438 49.3889 28.7269 49.5969 28.5188C49.805 28.3108 49.9219 28.0286 49.9219 27.7344C49.9175 23.9108 48.3966 20.2451 45.6929 17.5414C42.9893 14.8378 39.3236 13.3169 35.5 13.3125Z" fill="black"/>
<path d="M23.2969 62.125H47.7031V51.0312H23.2969V62.125ZM25.5156 53.25H45.4844V59.9062H25.5156V53.25Z" fill="black"/>
<path d="M35.5 23.2969C34.6223 23.2969 33.7644 23.5571 33.0346 24.0447C32.3049 24.5323 31.7361 25.2254 31.4003 26.0362C31.0644 26.8471 30.9765 27.7393 31.1478 28.6001C31.319 29.4609 31.7416 30.2516 32.3622 30.8722C32.9828 31.4928 33.7735 31.9154 34.6343 32.0866C35.4951 32.2578 36.3873 32.17 37.1982 31.8341C38.009 31.4982 38.702 30.9295 39.1896 30.1997C39.6772 29.47 39.9375 28.612 39.9375 27.7344C39.9375 26.5575 39.47 25.4288 38.6378 24.5966C37.8056 23.7644 36.6769 23.2969 35.5 23.2969ZM35.5 29.9531C35.0612 29.9531 34.6322 29.823 34.2673 29.5792C33.9024 29.3354 33.6181 28.9889 33.4501 28.5835C33.2822 28.178 33.2383 27.7319 33.3239 27.3015C33.4095 26.8711 33.6208 26.4758 33.9311 26.1655C34.2414 25.8552 34.6367 25.6439 35.0671 25.5583C35.4975 25.4726 35.9436 25.5166 36.3491 25.6845C36.7545 25.8524 37.101 26.1368 37.3448 26.5017C37.5886 26.8666 37.7187 27.2955 37.7187 27.7344C37.7187 28.3228 37.485 28.8872 37.0689 29.3033C36.6528 29.7194 36.0884 29.9531 35.5 29.9531Z" fill="black"/>
<path d="M35.5 8.87501C31.7692 8.87158 28.1212 9.97577 25.0186 12.0477C21.9159 14.1196 19.4981 17.0659 18.0716 20.5133C16.6452 23.9607 16.2742 27.7539 17.0057 31.4124C17.7373 35.0708 19.5384 38.4298 22.1809 41.0635L17.2774 43.371C17.087 43.4607 16.9259 43.6027 16.8132 43.7805C16.7004 43.9583 16.6406 44.1645 16.6406 44.375V47.7031C16.6406 47.9974 16.7575 48.2795 16.9656 48.4876C17.1736 48.6956 17.4558 48.8125 17.75 48.8125H24.4063C24.7005 48.8124 24.9826 48.6955 25.1906 48.4875L28.471 45.207C30.7016 46.1218 33.0891 46.5929 35.5 46.5938C40.5018 46.5938 45.2988 44.6068 48.8356 41.07C52.3724 37.5332 54.3594 32.7362 54.3594 27.7344C54.3594 22.7326 52.3724 17.9356 48.8356 14.3988C45.2988 10.862 40.5018 8.87501 35.5 8.87501ZM23.947 46.5938H18.8594V45.0795L31.3299 39.2109L23.947 46.5938ZM35.5 44.375C33.6888 44.3784 31.8896 44.0822 30.175 43.4986L37.386 36.2877C37.5661 36.1027 37.6761 35.8607 37.697 35.6033C37.7179 35.346 37.6484 35.0894 37.5004 34.8778C37.3524 34.6662 37.1352 34.5128 36.8863 34.4442C36.6374 34.3755 36.3723 34.3958 36.1368 34.5016L24.3397 40.0484C21.4706 37.4378 19.6052 33.9056 19.0668 30.064C18.5284 26.2224 19.351 22.3135 21.3919 19.0147C23.4329 15.7159 26.5636 13.235 30.2416 12.0021C33.9196 10.7691 37.913 10.8618 41.5298 12.2639C45.1467 13.6661 48.159 16.2894 50.0448 19.6793C51.9307 23.0692 52.5711 27.012 51.8552 30.8245C51.1393 34.637 49.1121 38.0789 46.125 40.5538C43.1379 43.0286 39.3791 44.3804 35.5 44.375Z" fill="black"/>
</svg>
