<svg width="315" height="448" viewBox="0 0 315 448" fill="none" xmlns="http://www.w3.org/2000/svg">
<path opacity="0.6" d="M302.43 77.745C339.806 96.8588 319.285 141.721 338.943 178.798C357.423 213.653 405.047 211.772 397.627 261.04C390.207 310.308 348.978 303.596 320.002 333.119C292.45 361.188 291.284 400.352 252.69 408.033C213.137 415.905 196.382 379.86 160.303 361.809C124.224 343.757 89.5669 349.614 67.9164 315.584C45.1881 279.861 61.5928 248.989 68.3759 207.221C74.6641 168.502 67.2936 135.021 98.6576 111.455C129.802 88.0543 198.423 108.491 198.423 108.491C198.423 108.491 264.703 58.4518 302.43 77.745Z" fill="#F3E4B4"/>
</svg>
