<svg width="33" height="35" viewBox="0 0 33 35" fill="none" xmlns="http://www.w3.org/2000/svg">
<path d="M17.02 4.19843C6.67959 4.19843 2 7.75741 2 17.9422C2 27.404 5.88946 31.686 17.02 31.686C27.3604 31.686 32.04 28.127 32.04 17.9422C32.04 8.4804 28.1505 4.19843 17.02 4.19843Z" fill="#F9F3FF"/>
<g filter="url(#filter0_d)">
<path d="M27.9219 9.45918H6.07812C5.79228 9.45948 5.51823 9.57316 5.3161 9.77529C5.11398 9.97741 5.0003 10.2515 5 10.5373V23.2862C5.00035 23.572 5.11405 23.846 5.31616 24.0481C5.51827 24.2503 5.7923 24.364 6.07812 24.3643H7.93119L7.35594 25.1968C7.19006 25.4456 7.12857 25.7496 7.18473 26.0432C7.2409 26.3369 7.41021 26.5968 7.65617 26.7668C7.90213 26.9368 8.20505 27.0033 8.49963 26.9521C8.7942 26.9008 9.05684 26.7359 9.23094 26.4928L10.7023 24.3643H23.2977L24.7685 26.4926C24.9426 26.7357 25.2052 26.9007 25.4998 26.9519C25.7944 27.0032 26.0973 26.9366 26.3433 26.7666C26.5892 26.5966 26.7585 26.3367 26.8147 26.0431C26.8709 25.7494 26.8094 25.4454 26.6435 25.1966L26.0682 24.3643H27.9213C28.2072 24.3641 28.4814 24.2505 28.6836 24.0483C28.8859 23.8462 28.9997 23.5721 29 23.2862V10.5373C28.9997 10.2515 28.886 9.97741 28.6839 9.77529C28.4818 9.57316 28.2077 9.45948 27.9219 9.45918ZM8.69169 26.1197C8.64715 26.184 8.58769 26.2366 8.5184 26.2729C8.4491 26.3092 8.37204 26.3282 8.29381 26.3282C8.20558 26.3282 8.11904 26.3041 8.04353 26.2584C7.96803 26.2128 7.90645 26.1473 7.86546 26.0692C7.82446 25.9911 7.80561 25.9032 7.81095 25.8152C7.81629 25.7271 7.84562 25.6422 7.89575 25.5696L8.72881 24.3643H9.90462L8.69169 26.1197ZM26.1042 25.5696C26.1544 25.6422 26.1837 25.7271 26.189 25.8152C26.1944 25.9032 26.1755 25.9911 26.1345 26.0692C26.0935 26.1473 26.032 26.2128 25.9565 26.2584C25.881 26.3041 25.7944 26.3282 25.7062 26.3282C25.6279 26.3281 25.5509 26.3092 25.4815 26.2729C25.4122 26.2365 25.3527 26.184 25.3081 26.1197L24.0954 24.3643H25.2712L26.1042 25.5696ZM28.3438 23.2862C28.3436 23.398 28.2991 23.5052 28.22 23.5843C28.1409 23.6634 28.0337 23.7079 27.9219 23.7081H6.07812C5.96628 23.7079 5.85906 23.6634 5.77998 23.5843C5.70089 23.5052 5.6564 23.398 5.65625 23.2862V10.5373C5.6564 10.4255 5.70089 10.3182 5.77998 10.2392C5.85906 10.1601 5.96628 10.1156 6.07812 10.1154H27.9219C28.0337 10.1156 28.1409 10.1601 28.22 10.2392C28.2991 10.3182 28.3436 10.4255 28.3438 10.5373V23.2862Z" fill="black"/>
<path d="M27.1719 10.9592H6.82813C6.78503 10.9592 6.74235 10.9676 6.70253 10.9841C6.66271 11.0006 6.62652 11.0248 6.59605 11.0552C6.56558 11.0857 6.54141 11.1219 6.52493 11.1617C6.50845 11.2015 6.49998 11.2442 6.5 11.2873V22.5362C6.5 22.6232 6.53457 22.7067 6.59611 22.7682C6.65764 22.8297 6.7411 22.8643 6.82813 22.8643H27.1719C27.2589 22.8643 27.3424 22.8297 27.4039 22.7682C27.4654 22.7067 27.5 22.6232 27.5 22.5362V11.2873C27.5 11.2442 27.4916 11.2015 27.4751 11.1617C27.4586 11.1219 27.4344 11.0857 27.4039 11.0552C27.3735 11.0248 27.3373 11.0006 27.2975 10.9841C27.2577 10.9676 27.215 10.9592 27.1719 10.9592ZM26.8438 22.2081H7.15625V11.6154H26.8438V22.2081Z" fill="black"/>
<path d="M12.7578 15.2072H14.1266V18.9444C14.1266 19.0315 14.1611 19.1149 14.2227 19.1765C14.2842 19.238 14.3677 19.2726 14.4547 19.2726C14.5417 19.2726 14.6252 19.238 14.6867 19.1765C14.7482 19.1149 14.7828 19.0315 14.7828 18.9444V15.2072H16.1516C16.2386 15.2072 16.322 15.1726 16.3836 15.1111C16.4451 15.0495 16.4797 14.9661 16.4797 14.8791C16.4797 14.792 16.4451 14.7086 16.3836 14.647C16.322 14.5855 16.2386 14.5509 16.1516 14.5509H12.7578C12.6708 14.5509 12.5873 14.5855 12.5258 14.647C12.4643 14.7086 12.4297 14.792 12.4297 14.8791C12.4297 14.9661 12.4643 15.0495 12.5258 15.1111C12.5873 15.1726 12.6708 15.2072 12.7578 15.2072Z" fill="black"/>
<path d="M19.2431 19.0706C19.2679 19.1304 19.31 19.1815 19.3639 19.2175C19.4178 19.2535 19.4811 19.2727 19.5459 19.2727C19.6107 19.2727 19.674 19.2535 19.7279 19.2175C19.7818 19.1815 19.8238 19.1304 19.8487 19.0706L21.545 15.0054C21.5626 14.9655 21.5721 14.9224 21.5729 14.8787C21.5737 14.8351 21.5658 14.7917 21.5496 14.7511C21.5333 14.7106 21.5092 14.6737 21.4786 14.6426C21.4479 14.6115 21.4114 14.5868 21.3711 14.57C21.3307 14.5532 21.2875 14.5446 21.2438 14.5448C21.2002 14.5449 21.157 14.5537 21.1167 14.5708C21.0765 14.5878 21.0401 14.6127 21.0097 14.644C20.9792 14.6753 20.9553 14.7124 20.9394 14.753L19.5459 18.0922L18.1524 14.753C18.1189 14.6727 18.0548 14.609 17.9743 14.5759C17.8938 14.5428 17.8035 14.5431 17.7232 14.5766C17.6429 14.6101 17.5792 14.6742 17.5461 14.7547C17.513 14.8351 17.5132 14.9255 17.5468 15.0058L19.2431 19.0706Z" fill="black"/>
</g>
<defs>
<filter id="filter0_d" x="1" y="4.19843" width="33" height="31" filterUnits="userSpaceOnUse" color-interpolation-filters="sRGB">
<feFlood flood-opacity="0" result="BackgroundImageFix"/>
<feColorMatrix in="SourceAlpha" type="matrix" values="0 0 0 0 0 0 0 0 0 0 0 0 0 0 0 0 0 0 127 0"/>
<feOffset dy="4"/>
<feGaussianBlur stdDeviation="2"/>
<feColorMatrix type="matrix" values="0 0 0 0 0 0 0 0 0 0 0 0 0 0 0 0 0 0 0.25 0"/>
<feBlend mode="normal" in2="BackgroundImageFix" result="effect1_dropShadow"/>
<feBlend mode="normal" in="SourceGraphic" in2="effect1_dropShadow" result="shape"/>
</filter>
</defs>
</svg>
