<svg width="162" height="322" viewBox="0 0 162 322" fill="none" xmlns="http://www.w3.org/2000/svg">
<path opacity="0.6" d="M133.718 23.2989C160.722 50.6995 126.159 87.6781 130.726 127.487C135.02 164.909 178.782 175.167 154.503 219.594C130.223 264.022 95.3103 247.304 58.5651 267.731C23.6276 287.154 8.60894 323.665 -29.0517 321.138C-67.6472 318.548 -69.9559 280.444 -96.1655 254.369C-122.375 228.294 -155.822 225.047 -163.279 187.599C-171.108 148.288 -145.257 123.417 -124.227 85.8778C-104.732 51.0779 -99.4637 17.752 -62.6821 3.52491C-26.1579 -10.6026 28.6458 25.9303 28.6458 25.9303C28.6458 25.9303 106.46 -4.35893 133.718 23.2989Z" fill="#F3E4B4"/>
</svg>
