<svg width="247" height="448" viewBox="0 0 247 448" fill="none" xmlns="http://www.w3.org/2000/svg">
<path opacity="0.6" d="M93.43 77.745C130.806 96.8588 110.285 141.721 129.943 178.798C148.423 213.653 196.047 211.772 188.627 261.04C181.207 310.308 139.978 303.596 111.002 333.119C83.4505 361.188 82.2845 400.352 43.6896 408.033C4.13669 415.905 -12.6178 379.86 -48.697 361.809C-84.7762 343.757 -119.433 349.614 -141.084 315.584C-163.812 279.861 -147.407 248.989 -140.624 207.221C-134.336 168.502 -141.706 135.021 -110.342 111.455C-79.1978 88.0543 -10.5775 108.491 -10.5775 108.491C-10.5775 108.491 55.703 58.4518 93.43 77.745Z" fill="#F3E4B4"/>
</svg>
