<svg width="292" height="300" viewBox="0 0 292 300" fill="none" xmlns="http://www.w3.org/2000/svg">
<path d="M147.317 0.00127613C182.91 0.33864 184.369 45.3457 213.342 67.5857C240.578 88.4928 275.976 67.5042 289.042 110.757C302.107 154.01 268.298 165.371 257.527 201.309C247.285 235.479 261.259 267.928 234.908 289.963C207.902 312.546 181.523 289.963 147.317 289.963C113.111 289.963 89.0537 308.901 59.7265 289.963C28.9394 270.083 29.6659 238.178 18.9634 201.309C9.04188 167.13 -9.24913 142.807 5.59255 110.757C20.3304 78.9309 80.1162 67.5857 80.1162 67.5857C80.1162 67.5857 111.39 -0.339254 147.317 0.00127613Z" fill="#EFD37F"/>
</svg>
