<svg width="33" height="29" viewBox="0 0 33 29" fill="none" xmlns="http://www.w3.org/2000/svg">
<path d="M15.02 0C4.67959 0 0 3.55898 0 13.7438C0 23.2056 3.88946 27.4876 15.02 27.4876C25.3604 27.4876 30.04 23.9286 30.04 13.7438C30.04 4.28197 26.1505 0 15.02 0Z" fill="#F9F3FF"/>
<g clip-path="url(#clip0)" filter="url(#filter0_d)">
<path d="M29.1199 15.7291C29.0573 14.2891 28.8068 12.6925 28.4312 11.1899C28.0555 9.7499 27.586 8.40379 27.0225 7.37074C24.8312 3.52027 22.452 4.11506 19.6033 4.86637C18.6954 5.0855 17.725 5.33594 16.7232 5.42985H16.4102C15.4085 5.33594 14.438 5.0855 13.5302 4.86637C10.6814 4.14636 8.30229 3.52027 6.11097 7.40205C5.54748 8.4351 5.04661 9.7812 4.70226 11.2212C4.3266 12.7238 4.07616 14.3204 4.01355 15.7604C3.95095 17.3569 4.10747 18.5152 4.45182 19.3291C4.79617 20.0804 5.29705 20.55 5.95444 20.7378C6.54923 20.8944 7.23794 20.8317 7.95794 20.5187C9.17882 20.0178 10.5875 18.9535 11.9649 17.67C12.9354 16.7308 14.7511 16.2613 16.5667 16.2613C18.3824 16.2613 20.1981 16.7308 21.1685 17.67C22.5459 18.9535 23.9546 20.0178 25.1755 20.5187C25.8955 20.8004 26.5842 20.8944 27.179 20.7378C27.8051 20.55 28.3373 20.1117 28.6816 19.2978C29.026 18.5152 29.1825 17.3569 29.1199 15.7291ZM27.6173 18.8596C27.4294 19.2978 27.179 19.5483 26.866 19.6422C26.5216 19.7361 26.0833 19.6735 25.5825 19.4856C24.4868 19.0474 23.2033 18.0769 21.9511 16.8874C20.7615 15.6978 18.6641 15.103 16.5667 15.103C14.4693 15.103 12.3719 15.6978 11.151 16.8247C9.86753 18.0143 8.58404 19.0161 7.51968 19.423C7.0188 19.6109 6.58054 19.7048 6.23619 19.5796C5.92314 19.4856 5.6727 19.2352 5.48487 18.7969C5.23444 18.2022 5.10922 17.2317 5.17183 15.7917C5.23444 14.4456 5.45357 12.9117 5.82922 11.4717C6.17358 10.1256 6.61184 8.87336 7.14402 7.93422C8.86578 4.83506 10.8693 5.33594 13.2484 5.96203C14.2189 6.21247 15.2206 6.46291 16.3163 6.55682C16.3476 6.55682 16.3476 6.55682 16.3789 6.55682H16.7232C16.7546 6.55682 16.7546 6.55682 16.7859 6.55682C17.9128 6.46291 18.9146 6.21247 19.885 5.96203C22.2642 5.36724 24.2677 4.83506 25.9894 7.93422C26.5216 8.87336 26.9599 10.0942 27.3042 11.4717C27.6486 12.9117 27.899 14.4143 27.9616 15.7917C28.0242 17.2317 27.899 18.2022 27.6173 18.8596Z" fill="black"/>
<path d="M13.6867 9.62469C13.3736 9.34295 12.998 9.12381 12.5597 9.09251C12.5284 8.68555 12.3406 8.27859 12.0588 7.99684L12.0275 7.96554C11.6832 7.62119 11.2449 7.43336 10.7441 7.43336C10.2432 7.43336 9.77361 7.65249 9.46056 7.96554C9.17882 8.24728 8.95969 8.65424 8.92838 9.09251C8.49012 9.12381 8.11446 9.31164 7.80141 9.59338L7.77011 9.62469C7.42576 9.96904 7.23793 10.4073 7.23793 10.9082C7.23793 11.4091 7.45706 11.8786 7.77011 12.1917C8.08316 12.5047 8.45881 12.6925 8.92838 12.7238C8.95969 13.1621 9.14751 13.5691 9.46056 13.8508C9.80491 14.1952 10.2432 14.383 10.7441 14.383C11.2449 14.383 11.7145 14.1639 12.0275 13.8508C12.3093 13.5378 12.5284 13.1621 12.5597 12.7238C12.998 12.6925 13.4049 12.5047 13.6867 12.1917C14.031 11.8473 14.2189 11.4091 14.2189 10.9082C14.2189 10.4073 13.9997 9.93773 13.6867 9.62469ZM12.9041 11.3777C12.7789 11.503 12.6223 11.5656 12.4345 11.5656H11.9962C11.6832 11.5656 11.4015 11.816 11.4015 12.1604V12.5673C11.4015 12.7552 11.3388 12.9117 11.2136 13.0369C11.0884 13.1621 10.9319 13.2247 10.7441 13.2247C10.5562 13.2247 10.3997 13.1621 10.2745 13.0369C10.1493 12.9117 10.0867 12.7552 10.0867 12.5673V12.1291C10.0867 11.816 9.83622 11.5343 9.49187 11.5343H9.0536C8.86577 11.5343 8.70925 11.4717 8.58403 11.3464C8.49012 11.2525 8.3962 11.096 8.3962 10.9082C8.3962 10.7203 8.45881 10.5638 8.58403 10.4386C8.58403 10.4386 8.58403 10.4386 8.61534 10.4073C8.74055 10.3134 8.89708 10.2508 9.0536 10.2508H9.49187C9.80491 10.2508 10.0867 10.0003 10.0867 9.65599V9.21773C10.0867 9.0299 10.1493 8.87337 10.2745 8.74816C10.3997 8.62294 10.5562 8.56033 10.7441 8.56033C10.9319 8.56033 11.0884 8.62294 11.2136 8.74816C11.2136 8.74816 11.2136 8.74816 11.2449 8.77946C11.3388 8.90468 11.4015 9.0612 11.4015 9.21773V9.65599C11.4015 9.96904 11.6519 10.2508 11.9962 10.2508H12.4345C12.6223 10.2508 12.7789 10.3134 12.9041 10.4386C13.0293 10.5638 13.0919 10.7203 13.0919 10.9082C13.0919 11.096 13.0293 11.2525 12.9041 11.3777Z" fill="black"/>
<path d="M22.0137 9.78121C22.6189 9.78121 23.1094 9.29066 23.1094 8.68555C23.1094 8.08043 22.6189 7.58988 22.0137 7.58988C21.4086 7.58988 20.9181 8.08043 20.9181 8.68555C20.9181 9.29066 21.4086 9.78121 22.0137 9.78121Z" fill="black"/>
<path d="M22.0137 14.2265C22.6189 14.2265 23.1094 13.7359 23.1094 13.1308C23.1094 12.5257 22.6189 12.0352 22.0137 12.0352C21.4086 12.0352 20.9181 12.5257 20.9181 13.1308C20.9181 13.7359 21.4086 14.2265 22.0137 14.2265Z" fill="black"/>
<path d="M19.7911 12.0039C20.3962 12.0039 20.8868 11.5133 20.8868 10.9082C20.8868 10.3031 20.3962 9.81254 19.7911 9.81254C19.186 9.81254 18.6955 10.3031 18.6955 10.9082C18.6955 11.5133 19.186 12.0039 19.7911 12.0039Z" fill="black"/>
<path d="M24.2363 12.0039C24.8415 12.0039 25.332 11.5133 25.332 10.9082C25.332 10.3031 24.8415 9.81254 24.2363 9.81254C23.6312 9.81254 23.1407 10.3031 23.1407 10.9082C23.1407 11.5133 23.6312 12.0039 24.2363 12.0039Z" fill="black"/>
</g>
<defs>
<filter id="filter0_d" x="0" y="0" width="33" height="31" filterUnits="userSpaceOnUse" color-interpolation-filters="sRGB">
<feFlood flood-opacity="0" result="BackgroundImageFix"/>
<feColorMatrix in="SourceAlpha" type="matrix" values="0 0 0 0 0 0 0 0 0 0 0 0 0 0 0 0 0 0 127 0"/>
<feOffset dy="4"/>
<feGaussianBlur stdDeviation="2"/>
<feColorMatrix type="matrix" values="0 0 0 0 0 0 0 0 0 0 0 0 0 0 0 0 0 0 0.25 0"/>
<feBlend mode="normal" in2="BackgroundImageFix" result="effect1_dropShadow"/>
<feBlend mode="normal" in="SourceGraphic" in2="effect1_dropShadow" result="shape"/>
</filter>
<clipPath id="clip0">
<rect width="25" height="23" fill="white" transform="translate(4)"/>
</clipPath>
</defs>
</svg>
