<svg width="33" height="36" viewBox="0 0 33 36" fill="none" xmlns="http://www.w3.org/2000/svg">
<path d="M17.02 6C6.67959 6 2 9.55898 2 19.7438C2 29.2056 5.88946 33.4876 17.02 33.4876C27.3604 33.4876 32.04 29.9286 32.04 19.7438C32.04 10.282 28.1505 6 17.02 6Z" fill="#F9F3FF"/>
<g filter="url(#filter0_d)">
<path d="M28.883 25.3172C28.808 25.2422 28.7062 25.2 28.6001 25.2H27.0001V13.2C26.9994 12.5376 26.4625 12.0007 25.8001 12H8.20007C7.53763 12.0007 7.00077 12.5376 7.00007 13.2V25.2H5.40003C5.29395 25.2 5.19219 25.2421 5.11714 25.3172C5.04214 25.3922 5 25.4939 5 25.6001V26.2385C4.99953 26.6399 5.20016 27.0147 5.53438 27.237L5.77616 27.3983C5.97322 27.5302 6.20507 27.6004 6.44216 27.6001H27.5578C27.7948 27.6004 28.0265 27.5303 28.2235 27.3985L28.4652 27.2372C28.7997 27.015 29.0005 26.64 29 26.2385V25.6001C29.0001 25.4939 28.958 25.3922 28.883 25.3172ZM7.80004 13.2C7.80027 12.9792 7.97919 12.8002 8.20002 12.8H25.8001C26.0209 12.8002 26.1999 12.9792 26.2001 13.2V25.2H7.80004V13.2ZM6.44225 26.8C6.36327 26.8001 6.28607 26.7767 6.22039 26.7328L5.97782 26.5711C5.86658 26.497 5.79983 26.3721 5.80006 26.2384V25.9999H13.8001L14.4001 26.8H6.44225V26.8ZM18.6001 26.8H15.4L14.8 26H19.2001L18.6001 26.8ZM28.2001 26.2385C28.2003 26.3723 28.1334 26.4973 28.0219 26.5713L27.7794 26.733C27.7138 26.7768 27.6367 26.8001 27.5579 26.8H19.6L20.2 26H28.2001V26.2385H28.2001Z" fill="black"/>
<path d="M25.0001 13.6H9.00002C8.89394 13.5999 8.79218 13.6421 8.71713 13.7171C8.64213 13.7921 8.59999 13.8939 8.59999 14V24C8.59994 24.1061 8.64208 24.2079 8.71713 24.2829C8.79213 24.3579 8.8939 24.4001 9.00002 24.4001H25C25.1061 24.4001 25.2079 24.358 25.2829 24.2829C25.3579 24.2079 25.4001 24.1062 25.4001 24V14C25.4001 13.8939 25.358 13.7922 25.2829 13.7171C25.2079 13.6421 25.1062 13.6 25.0001 13.6ZM24.6001 23.6H9.40005V14.4H24.6001V23.6H24.6001Z" fill="black"/>
<path d="M10.6001 16.4C10.7062 16.4002 10.8079 16.358 10.8828 16.2828L11.2828 15.8829C11.4366 15.7262 11.4355 15.475 11.2803 15.3198C11.1251 15.1646 10.8738 15.1635 10.7172 15.3173L10.3173 15.7172C10.2029 15.8316 10.1687 16.0037 10.2306 16.1531C10.2925 16.3025 10.4383 16.4 10.6001 16.4Z" fill="black"/>
<path d="M10.6001 18.8C10.7062 18.8002 10.8079 18.758 10.8828 18.6828L13.6828 15.8829C13.8366 15.7262 13.8355 15.475 13.6803 15.3198C13.5251 15.1646 13.2739 15.1635 13.1172 15.3173L10.3173 18.1172C10.2029 18.2316 10.1687 18.4036 10.2306 18.553C10.2925 18.7025 10.4383 18.8 10.6001 18.8Z" fill="black"/>
</g>
<defs>
<filter id="filter0_d" x="1" y="12" width="32" height="23.6001" filterUnits="userSpaceOnUse" color-interpolation-filters="sRGB">
<feFlood flood-opacity="0" result="BackgroundImageFix"/>
<feColorMatrix in="SourceAlpha" type="matrix" values="0 0 0 0 0 0 0 0 0 0 0 0 0 0 0 0 0 0 127 0"/>
<feOffset dy="4"/>
<feGaussianBlur stdDeviation="2"/>
<feColorMatrix type="matrix" values="0 0 0 0 0 0 0 0 0 0 0 0 0 0 0 0 0 0 0.25 0"/>
<feBlend mode="normal" in2="BackgroundImageFix" result="effect1_dropShadow"/>
<feBlend mode="normal" in="SourceGraphic" in2="effect1_dropShadow" result="shape"/>
</filter>
</defs>
</svg>
