<svg width="274" height="180" viewBox="0 0 274 180" fill="none" xmlns="http://www.w3.org/2000/svg">
<path d="M129.317 0.00127613C164.91 0.33864 166.369 45.3457 195.342 67.5857C222.578 88.4928 257.976 67.5042 271.042 110.757C284.107 154.01 250.298 165.371 239.527 201.309C229.285 235.479 243.259 267.928 216.908 289.963C189.902 312.546 163.523 289.963 129.317 289.963C95.1108 289.963 71.0537 308.901 41.7265 289.963C10.9394 270.083 11.6659 238.178 0.963383 201.309C-8.95812 167.13 -27.2491 142.807 -12.4074 110.757C2.33039 78.9309 62.1162 67.5857 62.1162 67.5857C62.1162 67.5857 93.3904 -0.339254 129.317 0.00127613Z" fill="#EFD37F"/>
</svg>
