<svg width="334" height="221" viewBox="0 0 334 221" fill="none" xmlns="http://www.w3.org/2000/svg">
<path opacity="0.6" d="M256.8 66.3579C288.537 82.5878 271.112 120.681 287.804 152.164C303.495 181.76 343.934 180.163 337.633 221.998C331.333 263.832 296.325 258.133 271.72 283.201C248.326 307.036 247.336 340.29 214.564 346.812C180.979 353.496 166.752 322.89 136.117 307.562C105.481 292.234 76.0532 297.207 57.6692 268.312C38.3702 237.979 52.2997 211.764 58.0594 176.299C63.3988 143.422 57.1405 114.992 83.7723 94.982C110.218 75.1117 168.485 92.4646 168.485 92.4646C168.485 92.4646 224.765 49.9756 256.8 66.3579Z" fill="#F3E4B4"/>
</svg>
