<svg width="100" height="100" viewBox="0 0 100 100" fill="none" xmlns="http://www.w3.org/2000/svg">
<path d="M41.5076 54.3707V4.27489C41.5076 1.91043 39.6002 0 37.2387 0H12.577C10.2066 0 8.31091 1.91043 8.31091 4.27489V54.3737C8.31091 56.7234 10.2066 58.6397 12.577 58.6397H37.2387C39.6002 58.6367 41.5076 56.7204 41.5076 54.3707ZM34.4231 2.67107C35.0275 2.67107 35.5169 3.16047 35.5169 3.7619C35.5169 4.36923 35.0275 4.85274 34.4231 4.85274C33.8305 4.85274 33.3352 4.36923 33.3352 3.7619C33.3352 3.16047 33.8305 2.67107 34.4231 2.67107ZM19.1868 3.08677H30.6288V4.33385H19.1868V3.08677ZM11.5009 45.0839V7.2054H38.3177V45.0839H11.5009ZM24.9063 54.4179C23.4027 54.4179 22.1881 53.1973 22.1881 51.6908C22.1881 50.1902 23.4027 48.9725 24.9063 48.9725C26.4099 48.9725 27.6305 50.1902 27.6305 51.6908C27.6305 53.1973 26.4099 54.4179 24.9063 54.4179Z" fill="#030104"/>
<path d="M73.4928 34.9508H78.8555V15.2656V9.8999H73.4928H47.0002V15.2656H73.4928V34.9508Z" fill="#030104"/>
<path d="M26.5427 62.2476H21.174V75.1224V80.4851H26.5427H42.8197V75.1224H26.5427V62.2476Z" fill="#030104"/>
<path d="M87.5498 38.907H51.1454C48.8547 38.907 47.0002 40.7673 47.0002 43.0551V95.8544C47.0002 98.1422 48.8547 99.9996 51.1454 99.9996H87.5498C89.8405 99.9996 91.6891 98.1422 91.6891 95.8544V43.0551C91.6891 40.7702 89.8405 38.907 87.5498 38.907ZM69.3535 98.4488C67.9885 98.4488 66.8829 97.3433 66.8829 95.9841C66.8829 94.625 67.9885 93.5224 69.3535 93.5224C70.7067 93.5224 71.8123 94.628 71.8123 95.9841C71.8123 97.3433 70.7067 98.4488 69.3535 98.4488ZM87.4967 91.3584H51.1985V43.8983H87.4967V91.3584Z" fill="#030104"/>
</svg>
