<svg width="71" height="71" viewBox="0 0 71 71" fill="none" xmlns="http://www.w3.org/2000/svg">
<path d="M32.6706 60.0825H27.0921C26.6902 60.0825 26.3631 59.7555 26.3631 59.3536V11.6463C26.3631 11.2445 26.6901 10.9175 27.0921 10.9175H32.6577C33.2157 10.9175 33.6682 10.4651 33.6682 9.90699C33.6682 9.34897 33.2158 8.89648 32.6577 8.89648H27.0921C25.5758 8.89648 24.3422 10.13 24.3422 11.6462V59.3534C24.3422 60.8696 25.5758 62.1031 27.0921 62.1031H32.6706C33.2286 62.1031 33.6811 61.6507 33.6811 61.0926C33.6812 60.5344 33.2289 60.0825 32.6706 60.0825Z" fill="black"/>
<path d="M43.9078 8.89673H37.8073C37.2491 8.89673 36.7968 9.34908 36.7968 9.90723C36.7968 10.4652 37.2491 10.9177 37.8073 10.9177H43.9078C44.3097 10.9177 44.6367 11.2447 44.6367 11.6466V59.3537C44.6367 59.7556 44.3097 60.0826 43.9078 60.0826H37.8195C37.2613 60.0826 36.8091 60.5349 36.8091 61.0931C36.8091 61.6513 37.2614 62.1036 37.8195 62.1036H43.9078C45.4241 62.1036 46.6576 60.8701 46.6576 59.3539V11.6465C46.6576 10.1302 45.4239 8.89673 43.9078 8.89673Z" fill="black"/>
<path d="M61.9898 27.4229C63.6478 27.4229 64.9967 26.0741 64.9967 24.4162V21.7397C64.9967 20.0819 63.6478 18.733 61.9898 18.733H55.5542V15.001H61.9897C63.6477 15.001 64.9965 13.6521 64.9965 11.9943V9.31778C64.9965 7.65996 63.6477 6.3111 61.9897 6.3111H55.5541V3.91859C55.5542 1.7578 53.7963 0 51.6356 0H19.3643C17.2037 0 15.4457 1.7578 15.4457 3.91859V6.31096H9.0101C7.35228 6.31096 6.00342 7.65982 6.00342 9.31764V11.9941C6.00342 13.652 7.35228 15.0008 9.0101 15.0008H15.4457V18.7329H9.0101C7.35228 18.7329 6.00342 20.0818 6.00342 21.7396V24.4161C6.00342 26.0739 7.35228 27.4228 9.0101 27.4228H15.4457V31.155H9.0101C7.35228 31.155 6.00342 32.5039 6.00342 34.1617V36.8382C6.00342 38.496 7.35228 39.8449 9.0101 39.8449H15.4457V43.5771H9.0101C7.35228 43.5771 6.00342 44.9259 6.00342 46.5838V49.2603C6.00342 50.9181 7.35228 52.267 9.0101 52.267H15.4457V55.999H9.0101C7.35228 55.999 6.00342 57.3479 6.00342 59.0057V61.6822C6.00342 63.34 7.35228 64.6889 9.0101 64.6889H15.4457V67.0814C15.4457 69.2421 17.2035 71 19.3643 71H51.6356C53.7963 71 55.5541 69.2422 55.5541 67.0814V64.689H61.9897C63.6477 64.689 64.9965 63.3402 64.9965 61.6824V59.0059C64.9965 57.348 63.6477 55.9992 61.9897 55.9992H55.5541V52.2671H61.9897C63.6477 52.2671 64.9965 50.9182 64.9965 49.2604V46.5839C64.9965 44.9261 63.6477 43.5772 61.9897 43.5772H55.5541V39.845H61.9897C63.6477 39.845 64.9965 38.4961 64.9965 36.8383V34.1618C64.9965 32.504 63.6477 31.1551 61.9897 31.1551H55.5541V27.4229H61.9898ZM55.5542 8.33182H61.9897C62.5333 8.33182 62.9757 8.77405 62.9757 9.31764V11.9941C62.9757 12.5377 62.5333 12.98 61.9897 12.98H55.5542V8.33182ZM55.5542 20.7539H61.9897C62.5333 20.7539 62.9757 21.1961 62.9757 21.7397V24.4162C62.9757 24.9598 62.5333 25.4021 61.9897 25.4021H55.5542V20.7539ZM15.4459 62.6682H9.0101C8.46651 62.6682 8.02428 62.226 8.02428 61.6824V59.0059C8.02428 58.4623 8.46651 58.02 9.0101 58.02H15.4457V62.6682H15.4459ZM15.4459 50.2461H9.0101C8.46651 50.2461 8.02428 49.8039 8.02428 49.2603V46.5838C8.02428 46.0402 8.46651 45.5979 9.0101 45.5979H15.4457V50.2461H15.4459ZM15.4459 37.824H9.0101C8.46651 37.824 8.02428 37.3818 8.02428 36.8382V34.1618C8.02428 33.6182 8.46651 33.176 9.0101 33.176H15.4457V37.824H15.4459ZM15.4459 25.4021H9.0101C8.46651 25.4021 8.02428 24.9598 8.02428 24.4162V21.7397C8.02428 21.1961 8.46651 20.7539 9.0101 20.7539H15.4457V25.4021H15.4459ZM15.4459 12.98H9.0101C8.46651 12.98 8.02428 12.5377 8.02428 11.9941V9.31778C8.02428 8.77419 8.46651 8.33196 9.0101 8.33196H15.4457V12.98H15.4459ZM53.5332 67.0814C53.5332 68.1278 52.6819 68.9791 51.6356 68.9791H19.3643C18.3179 68.9791 17.4666 68.1278 17.4666 67.0814V63.6785V57.0095V51.2566V44.5876V38.8345V32.1655V26.4124V19.7434V13.9905V7.32146V3.91859C17.4666 2.87217 18.3179 2.02087 19.3643 2.02087H51.6356C52.682 2.02087 53.5332 2.87217 53.5332 3.91859V67.0814ZM61.9896 58.02C62.5332 58.02 62.9755 58.4623 62.9755 59.0059V61.6824C62.9755 62.226 62.5332 62.6682 61.9896 62.6682H55.5541V58.02H61.9896ZM61.9896 45.5979C62.5332 45.5979 62.9755 46.0402 62.9755 46.5838V49.2603C62.9755 49.8039 62.5332 50.2461 61.9896 50.2461H55.5541V45.5979H61.9896ZM61.9896 33.176C62.5332 33.176 62.9755 33.6182 62.9755 34.1618V36.8383C62.9755 37.3819 62.5332 37.8241 61.9896 37.8241H55.5541V33.176H61.9896Z" fill="black"/>
<path d="M39.9202 42.4563C40.1572 42.3974 40.3236 42.1846 40.3236 41.9404V41.1543C40.3236 40.7918 39.9697 40.5354 39.6256 40.6495C38.547 41.0073 37.2876 41.4132 35.8472 41.8671C35.7511 41.6477 35.631 41.4573 35.487 41.296C35.3429 41.1348 35.1963 41.0113 35.0471 40.9255C34.8979 40.8398 34.7263 40.7721 34.5325 40.7223C34.3388 40.6727 34.1664 40.6409 34.0154 40.6272C33.8644 40.6136 33.693 40.6067 33.5008 40.6067C33.0584 40.6067 32.6784 40.6753 32.3612 40.8125C32.044 40.9498 31.7919 41.1504 31.6048 41.4146C31.4179 41.6788 31.2808 41.9866 31.1933 42.3382C31.1058 42.6898 31.0621 43.0971 31.0621 43.5601V45.0661C31.0621 45.3597 31.3 45.5976 31.5936 45.5976H39.7919C40.0855 45.5976 40.3234 45.3597 40.3236 45.066V44.2561C40.3236 43.9626 40.0856 43.7246 39.792 43.7246H36.0581V43.4159L39.9202 42.4563ZM34.9156 43.7246H32.4358V43.102C32.4358 42.9716 32.4812 42.8611 32.5721 42.7701C32.663 42.6793 32.7797 42.6141 32.9219 42.5746C33.0644 42.5352 33.1937 42.5077 33.3104 42.4924C33.427 42.477 33.5401 42.4692 33.65 42.4692C33.7598 42.4692 33.8764 42.4786 33.9998 42.4975C34.1233 42.5163 34.2589 42.5489 34.4063 42.5952C34.5538 42.6416 34.6756 42.7162 34.7716 42.8191C34.8677 42.922 34.9156 43.0455 34.9156 43.1896V43.7246Z" fill="black"/>
<path d="M39.9711 35.8516C40.1758 35.8122 40.3236 35.6332 40.3236 35.4249V34.4747C40.3236 34.1979 40.0681 33.9916 39.7976 34.05L31.4052 35.8589C31.2051 35.9021 31.0623 36.079 31.0623 36.2837V37.2391C31.0623 37.4437 31.2049 37.6205 31.4049 37.6638L39.7973 39.4775C40.0679 39.536 40.3234 39.3298 40.3236 39.053V38.0966C40.3236 37.8865 40.1734 37.7066 39.9668 37.669L38.3427 37.3738V36.1646L39.9711 35.8516ZM37.1902 37.245L33.753 36.7563L37.1902 36.288V37.245Z" fill="black"/>
<path d="M40.0038 31.216L33.7687 31.1769L40.0567 30.0861C40.2111 30.0593 40.3237 29.9255 40.3237 29.769V28.916C40.3237 28.7576 40.2087 28.6227 40.0523 28.598C39.3759 28.4911 38.3806 28.3251 37.0667 28.1001C35.5642 27.8428 34.4787 27.6627 33.8097 27.5598L40.0036 27.5207C40.1806 27.5196 40.3235 27.3756 40.3235 27.1987V26.4616C40.3235 26.2837 40.1793 26.1396 40.0015 26.1396H31.3841C31.2062 26.1396 31.0621 26.2839 31.0621 26.4616V28.0347C31.0621 28.1914 31.175 28.3254 31.3293 28.352L37.2364 29.371L31.3332 30.3155C31.177 30.3404 31.0621 30.4751 31.0621 30.6333V32.2802C31.0621 32.4581 31.2063 32.6022 31.3841 32.6022H40.0015C40.1793 32.6022 40.3234 32.4581 40.3237 32.2802V31.538C40.3237 31.3609 40.1807 31.2171 40.0038 31.216Z" fill="black"/>
</svg>
