<svg width="71" height="71" viewBox="0 0 71 71" fill="none" xmlns="http://www.w3.org/2000/svg">
<g clip-path="url(#clip0)">
<path d="M65.2529 18.2812C65.2165 16.3643 65.1817 14.5534 65.1817 12.8015C65.1817 11.4291 64.0693 10.3164 62.6965 10.3164C52.0682 10.3164 43.9761 7.26191 37.231 0.703679C36.2661 -0.234725 34.7306 -0.234394 33.766 0.703679C27.0216 7.26191 18.9308 10.3164 8.30316 10.3164C6.93068 10.3164 5.81798 11.4291 5.81798 12.8015C5.81798 14.5538 5.78352 16.3653 5.74674 18.2825C5.4061 36.1215 4.93955 60.5528 34.6845 70.863C34.9483 70.9545 35.2233 71.0002 35.4983 71.0002C35.7734 71.0002 36.0487 70.9545 36.3122 70.863C66.0595 60.5525 65.5936 36.1205 65.2529 18.2812ZM35.4987 65.8778C9.98845 56.6107 10.3741 36.31 10.7164 18.3773C10.737 17.3011 10.7569 16.2579 10.7708 15.2354C20.7248 14.8152 28.6846 11.7989 35.4987 5.86292C42.3134 11.7989 50.2746 14.8155 60.2292 15.2354C60.2431 16.2576 60.263 17.3001 60.2836 18.3756C60.6255 36.3091 61.0109 56.6103 35.4987 65.8778Z" fill="black"/>
<path d="M44.0566 26.8671L32.0618 38.8613L26.9433 33.7428C25.9728 32.7726 24.3992 32.7726 23.429 33.7428C22.4584 34.7137 22.4584 36.287 23.429 37.2575L30.3046 44.1332C30.7897 44.6183 31.4259 44.8609 32.0618 44.8609C32.6977 44.8609 33.3339 44.6183 33.819 44.1332L47.5707 30.3819C48.5416 29.4113 48.5416 27.8377 47.571 26.8675C46.6008 25.8969 45.0272 25.8966 44.0566 26.8671Z" fill="black"/>
</g>
<defs>
<clipPath id="clip0">
<rect width="71" height="71" fill="white"/>
</clipPath>
</defs>
</svg>
