<svg width="866" height="535" viewBox="0 0 866 535" fill="none" xmlns="http://www.w3.org/2000/svg">
<path d="M694.711 0.0055937C862.557 1.48437 869.44 198.765 1006.07 296.251C1134.51 387.893 1301.43 295.893 1363.05 485.484C1424.66 675.076 1265.23 724.876 1214.43 882.404C1166.13 1032.18 1232.03 1174.42 1107.77 1271.01C980.417 1369.99 856.019 1271.01 694.711 1271.01C533.403 1271.01 419.955 1354.02 281.655 1271.01C136.471 1183.86 139.897 1044.01 89.4266 882.404C42.6393 732.587 -43.6166 625.971 26.3731 485.484C95.8731 345.981 377.808 296.251 377.808 296.251C377.808 296.251 525.29 -1.48707 694.711 0.0055937Z" fill="#EFD37F"/>
</svg>
