<svg width="780" height="476" viewBox="0 0 780 476" fill="none" xmlns="http://www.w3.org/2000/svg">
<path opacity="0.6" d="M518.054 133.175C582.079 165.917 546.927 242.764 580.601 306.276C612.256 365.982 693.834 362.76 681.125 447.155C668.415 531.55 597.791 520.053 548.154 570.623C500.96 618.706 498.963 685.792 432.851 698.95C365.097 712.434 336.398 650.691 274.595 619.769C212.792 588.847 153.426 598.879 116.339 540.588C77.406 479.395 105.507 426.511 117.126 354.965C127.898 288.64 115.272 231.288 168.998 190.92C222.348 150.835 339.892 185.842 339.892 185.842C339.892 185.842 453.429 100.126 518.054 133.175Z" fill="#F3E4B4"/>
</svg>
