<svg width="870" height="832" viewBox="0 0 870 832" fill="none" xmlns="http://www.w3.org/2000/svg">
<path d="M438.5 0.999991C544.429 1.93345 548.773 126.464 635 188C716.06 245.848 821.408 187.774 860.294 307.451C899.179 427.128 798.559 458.563 766.5 558C736.019 652.545 777.608 742.329 699.183 803.299C618.811 865.783 540.303 803.299 438.5 803.299C336.697 803.299 265.099 855.698 177.817 803.299C86.1902 748.292 88.3523 660.014 56.5 558C26.9721 463.431 -27.4647 396.131 16.7064 307.451C60.5684 219.391 238.5 188 238.5 188C238.5 188 331.577 0.0577732 438.5 0.999991Z" fill="#EFD37F"/>
</svg>
