<svg width="554" height="607" viewBox="0 0 554 607" fill="none" xmlns="http://www.w3.org/2000/svg">
<path opacity="0.6" d="M409.346 105.23C459.936 131.101 432.16 191.822 458.767 242.007C483.78 289.185 548.24 286.638 538.197 353.324C528.155 420.009 472.35 410.925 433.13 450.884C395.838 488.877 394.26 541.886 342.021 552.282C288.485 562.937 265.808 514.15 216.974 489.717C168.14 465.283 121.231 473.211 91.9264 427.151C61.1631 378.799 83.3672 337.012 92.5483 280.479C101.06 228.072 91.0835 182.754 133.535 150.857C175.69 119.184 268.569 146.845 268.569 146.845C268.569 146.845 358.282 79.1159 409.346 105.23Z" fill="#F3E4B4"/>
</svg>
