<svg width="320" height="315" viewBox="0 0 320 315" fill="none" xmlns="http://www.w3.org/2000/svg">
<path d="M212.556 54.6413C238.825 68.075 224.402 99.605 238.218 125.664C251.206 150.161 284.678 148.839 279.463 183.466C274.248 218.093 245.271 213.376 224.906 234.125C205.542 253.853 204.723 281.378 177.597 286.777C149.798 292.309 138.023 266.976 112.665 254.289C87.3078 241.602 62.95 245.718 47.7335 221.801C31.7594 196.694 43.289 174.996 48.0564 145.641C52.4759 118.428 47.2958 94.8965 69.3392 78.3338C91.2285 61.8869 139.457 76.2501 139.457 76.2501C139.457 76.2501 186.04 41.0815 212.556 54.6413Z" fill="#EFD37F"/>
</svg>
