<svg width="188" height="193" viewBox="0 0 188 193" fill="none" xmlns="http://www.w3.org/2000/svg">
<path opacity="0.6" d="M162.719 72.5255C168.736 90.1023 148.41 98.0689 143.264 115.914C138.426 132.69 154.161 146.736 136.649 160.134C119.137 173.532 108.08 158.717 89.7793 159.202C72.3791 159.662 59.9645 171.768 45.3196 162.343C30.3112 152.685 36.0634 136.062 30.1324 119.222C24.2015 102.382 11.3708 93.5883 14.9452 76.1005C18.6976 57.7422 33.4122 52.9617 48.4151 41.7553C62.3233 31.3666 70.2736 18.4448 87.5022 20.5899C104.61 22.7201 120.164 50.326 120.164 50.326C120.164 50.326 156.646 54.7837 162.719 72.5255Z" fill="#F3E4B4"/>
</svg>
