<svg width="100" height="100" viewBox="0 0 100 100" fill="none" xmlns="http://www.w3.org/2000/svg">
<path d="M95.5078 13.489H4.49219C3.30117 13.4903 2.15928 13.9639 1.3171 14.8061C0.474922 15.6483 0.00124086 16.7902 0 17.9812L0 71.1015C0.00144722 72.2925 0.475195 73.4342 1.31733 74.2764C2.15946 75.1185 3.30123 75.5923 4.49219 75.5937H12.2133L9.81641 79.0625C9.12524 80.099 8.86905 81.3656 9.10306 82.5893C9.33707 83.8129 10.0425 84.8956 11.0674 85.604C12.0922 86.3124 13.3544 86.5897 14.5818 86.3762C15.8092 86.1626 16.9035 85.4753 17.6289 84.4625L23.7594 75.5937H76.2406L82.3688 84.4617C83.0941 85.4745 84.1885 86.1618 85.4159 86.3754C86.6433 86.5889 87.9054 86.3116 88.9303 85.6032C89.9551 84.8949 90.6606 83.8121 90.8946 82.5885C91.1286 81.3648 90.8724 80.0982 90.1813 79.0617L87.7844 75.5937H95.5055C96.6968 75.5929 97.8392 75.1194 98.6818 74.2772C99.5245 73.435 99.9986 72.2929 100 71.1015V17.9812C99.9988 16.7902 99.5251 15.6483 98.6829 14.8061C97.8407 13.9639 96.6988 13.4903 95.5078 13.489ZM15.382 82.9078C15.1965 83.1757 14.9487 83.3948 14.66 83.5461C14.3713 83.6973 14.0502 83.7764 13.7242 83.7765C13.3566 83.7765 12.996 83.676 12.6814 83.4858C12.3668 83.2956 12.1102 83.023 11.9394 82.6974C11.7686 82.3719 11.6901 82.0059 11.7123 81.6389C11.7346 81.272 11.8567 80.9181 12.0656 80.6156L15.5367 75.5937H20.4359L15.382 82.9078ZM87.9344 80.6156C88.1433 80.9181 88.2654 81.272 88.2877 81.6389C88.3099 82.0059 88.2314 82.3719 88.0606 82.6974C87.8898 83.023 87.6332 83.2956 87.3186 83.4858C87.004 83.676 86.6434 83.7765 86.2758 83.7765C85.9497 83.7764 85.6286 83.6973 85.3397 83.546C85.0509 83.3947 84.803 83.1757 84.6172 82.9078L79.5641 75.5937H84.4633L87.9344 80.6156ZM97.2656 71.1015C97.265 71.5675 97.0796 72.0143 96.7501 72.3438C96.4206 72.6733 95.9738 72.8587 95.5078 72.8593H4.49219C4.02618 72.8587 3.57943 72.6733 3.24991 72.3438C2.92039 72.0143 2.735 71.5675 2.73438 71.1015V17.9812C2.735 17.5152 2.92039 17.0684 3.24991 16.7389C3.57943 16.4094 4.02618 16.224 4.49219 16.2234H95.5078C95.9738 16.224 96.4206 16.4094 96.7501 16.7389C97.0796 17.0684 97.265 17.5152 97.2656 17.9812V71.1015Z" fill="black"/>
<path d="M92.3828 19.739H7.61719C7.43762 19.7389 7.25979 19.7742 7.09387 19.8429C6.92795 19.9115 6.77719 20.0122 6.65021 20.1392C6.52324 20.2662 6.42253 20.417 6.35386 20.5829C6.28519 20.7488 6.2499 20.9266 6.25 21.1062V67.9765C6.25 68.3391 6.39404 68.6869 6.65044 68.9433C6.90684 69.1997 7.25459 69.3437 7.61719 69.3437H92.3828C92.7454 69.3437 93.0932 69.1997 93.3496 68.9433C93.606 68.6869 93.75 68.3391 93.75 67.9765V21.1062C93.7501 20.9266 93.7148 20.7488 93.6461 20.5829C93.5775 20.417 93.4768 20.2662 93.3498 20.1392C93.2228 20.0122 93.0721 19.9115 92.9061 19.8429C92.7402 19.7742 92.5624 19.7389 92.3828 19.739ZM91.0156 66.6094H8.98438V22.4734H91.0156V66.6094Z" fill="black"/>
<path d="M32.3242 37.439H38.0273V53.0108C38.0273 53.3734 38.1714 53.7212 38.4278 53.9776C38.6842 54.234 39.0319 54.378 39.3945 54.378C39.7571 54.378 40.1049 54.234 40.3613 53.9776C40.6177 53.7212 40.7617 53.3734 40.7617 53.0108V37.439H46.4648C46.8274 37.439 47.1752 37.2949 47.4316 37.0385C47.688 36.7821 47.832 36.4344 47.832 36.0718C47.832 35.7092 47.688 35.3614 47.4316 35.105C47.1752 34.8486 46.8274 34.7046 46.4648 34.7046H32.3242C31.9616 34.7046 31.6139 34.8486 31.3575 35.105C31.1011 35.3614 30.957 35.7092 30.957 36.0718C30.957 36.4344 31.1011 36.7821 31.3575 37.0385C31.6139 37.2949 31.9616 37.439 32.3242 37.439Z" fill="black"/>
<path d="M59.3461 53.5367C59.4497 53.7859 59.6248 53.9989 59.8494 54.1487C60.0739 54.2986 60.3378 54.3785 60.6078 54.3785C60.8777 54.3785 61.1416 54.2986 61.3662 54.1487C61.5907 53.9989 61.7659 53.7859 61.8695 53.5367L68.9375 36.5984C69.011 36.4319 69.0505 36.2525 69.0538 36.0706C69.057 35.8886 69.0239 35.7079 68.9564 35.5389C68.8889 35.37 68.7883 35.2162 68.6606 35.0866C68.5329 34.9569 68.3806 34.8541 68.2127 34.7841C68.0447 34.7142 67.8645 34.6784 67.6825 34.679C67.5006 34.6795 67.3206 34.7164 67.1531 34.7874C66.9855 34.8585 66.8339 34.9622 66.707 35.0926C66.5801 35.223 66.4805 35.3774 66.414 35.5468L60.6078 49.4601L54.8015 35.5468C54.6619 35.2122 54.395 34.9467 54.0597 34.8089C53.7243 34.671 53.3479 34.672 53.0133 34.8117C52.6786 34.9513 52.4132 35.2182 52.2753 35.5535C52.1375 35.8889 52.1385 36.2653 52.2781 36.5999L59.3461 53.5367Z" fill="black"/>
</svg>
